<svg width="50" height="50" viewBox="0 0 50 50" fill="none" xmlns="http://www.w3.org/2000/svg">
<g filter="url(#filter0_d_0_3073)">
<rect x="5" y="3" width="40" height="40" rx="20" fill="white"/>
<path fill-rule="evenodd" clip-rule="evenodd" d="M30.6 20.2H29.6667V18.3333C29.6667 15.7573 27.576 13.6667 25 13.6667C22.424 13.6667 20.3333 15.7573 20.3333 18.3333V20.2H19.4C18.3733 20.2 17.5333 21.04 17.5333 22.0667V31.4C17.5333 32.4267 18.3733 33.2667 19.4 33.2667H30.6C31.6267 33.2667 32.4667 32.4267 32.4667 31.4V22.0667C32.4667 21.04 31.6267 20.2 30.6 20.2ZM25 28.6C23.9733 28.6 23.1333 27.76 23.1333 26.7333C23.1333 25.7067 23.9733 24.8667 25 24.8667C26.0267 24.8667 26.8667 25.7067 26.8667 26.7333C26.8667 27.76 26.0267 28.6 25 28.6ZM22.2 20.2V18.3333C22.2 16.784 23.4507 15.5333 25 15.5333C26.5493 15.5333 27.8 16.784 27.8 18.3333V20.2H22.2Z" fill="#C3CAD9"/>
</g>
<defs>
<filter id="filter0_d_0_3073" x="0" y="0" width="50" height="50" filterUnits="userSpaceOnUse" color-interpolation-filters="sRGB">
<feFlood flood-opacity="0" result="BackgroundImageFix"/>
<feColorMatrix in="SourceAlpha" type="matrix" values="0 0 0 0 0 0 0 0 0 0 0 0 0 0 0 0 0 0 127 0" result="hardAlpha"/>
<feOffset dy="2"/>
<feGaussianBlur stdDeviation="2.5"/>
<feColorMatrix type="matrix" values="0 0 0 0 0.14902 0 0 0 0 0.2 0 0 0 0 0.301961 0 0 0 0.03 0"/>
<feBlend mode="normal" in2="BackgroundImageFix" result="effect1_dropShadow_0_3073"/>
<feBlend mode="normal" in="SourceGraphic" in2="effect1_dropShadow_0_3073" result="shape"/>
</filter>
</defs>
</svg>
