<svg width="50" height="50" viewBox="0 0 50 50" fill="none" xmlns="http://www.w3.org/2000/svg">
<g filter="url(#filter0_d_0_3076)">
<rect x="5" y="3" width="40" height="40" rx="20" fill="white"/>
<path fill-rule="evenodd" clip-rule="evenodd" d="M31.682 23.9147C31.7194 23.616 31.7474 23.3173 31.7474 23C31.7474 22.6827 31.7194 22.384 31.682 22.0853L33.6514 20.5453C33.8287 20.4053 33.8754 20.1533 33.7634 19.948L31.8967 16.7187C31.7847 16.5133 31.5327 16.4387 31.3274 16.5133L29.0034 17.4467C28.518 17.0733 27.9954 16.7653 27.426 16.532L27.0714 14.0587C27.0434 13.8347 26.8474 13.6667 26.614 13.6667H22.8807C22.6474 13.6667 22.4514 13.8347 22.4234 14.0587L22.0687 16.532C21.4994 16.7653 20.9767 17.0827 20.4914 17.4467L18.1674 16.5133C17.9527 16.4293 17.71 16.5133 17.598 16.7187L15.7314 19.948C15.61 20.1533 15.666 20.4053 15.8434 20.5453L17.8127 22.0853C17.7754 22.384 17.7474 22.692 17.7474 23C17.7474 23.308 17.7754 23.616 17.8127 23.9147L15.8434 25.4547C15.666 25.5947 15.6194 25.8467 15.7314 26.052L17.598 29.2813C17.71 29.4867 17.962 29.5613 18.1674 29.4867L20.4914 28.5533C20.9767 28.9267 21.4994 29.2347 22.0687 29.468L22.4234 31.9413C22.4514 32.1653 22.6474 32.3333 22.8807 32.3333H26.614C26.8474 32.3333 27.0434 32.1653 27.0714 31.9413L27.426 29.468C27.9954 29.2347 28.518 28.9173 29.0034 28.5533L31.3274 29.4867C31.542 29.5707 31.7847 29.4867 31.8967 29.2813L33.7634 26.052C33.8754 25.8467 33.8287 25.5947 33.6514 25.4547L31.682 23.9147ZM24.7474 26.2667C22.946 26.2667 21.4807 24.8013 21.4807 23C21.4807 21.1987 22.946 19.7333 24.7474 19.7333C26.5487 19.7333 28.014 21.1987 28.014 23C28.014 24.8013 26.5487 26.2667 24.7474 26.2667Z" fill="#C3CAD9"/>
</g>
<defs>
<filter id="filter0_d_0_3076" x="0" y="0" width="50" height="50" filterUnits="userSpaceOnUse" color-interpolation-filters="sRGB">
<feFlood flood-opacity="0" result="BackgroundImageFix"/>
<feColorMatrix in="SourceAlpha" type="matrix" values="0 0 0 0 0 0 0 0 0 0 0 0 0 0 0 0 0 0 127 0" result="hardAlpha"/>
<feOffset dy="2"/>
<feGaussianBlur stdDeviation="2.5"/>
<feColorMatrix type="matrix" values="0 0 0 0 0.14902 0 0 0 0 0.2 0 0 0 0 0.301961 0 0 0 0.03 0"/>
<feBlend mode="normal" in2="BackgroundImageFix" result="effect1_dropShadow_0_3076"/>
<feBlend mode="normal" in="SourceGraphic" in2="effect1_dropShadow_0_3076" result="shape"/>
</filter>
</defs>
</svg>
