<svg width="70" height="70" viewBox="0 0 70 70" fill="none" xmlns="http://www.w3.org/2000/svg">
<ellipse cx="35" cy="36.2837" rx="34.9469" ry="30.4769" fill="#8833FF"/>
<path fill-rule="evenodd" clip-rule="evenodd" d="M65.5736 64.3117C66.7084 62.3408 68.2613 58.6377 68.6794 56.3681C69.0975 54.0984 68.978 53.2025 67.9029 52.5455C66.8279 51.8885 63.2442 49.1411 62.2289 48.3647C61.2135 47.5882 59.0633 45.438 58.048 43.3476C57.0326 41.2571 55.8978 38.5097 55.3005 36.3595C54.7033 34.2094 53.6282 31.6411 52.9712 29.9687C52.3142 28.2964 51.2988 25.9073 50.164 24.3544C49.0292 22.8015 47.7152 21.0097 46.6999 20.4124C45.6845 19.8152 44.9678 19.5763 44.1316 18.9193C43.2954 18.2623 42.6982 17.4858 41.9814 16.4107C41.2647 15.3356 40.6077 15.0967 39.891 15.2162C39.1743 15.3356 38.2186 16.7094 37.9797 17.9636C37.7408 19.2179 14.4473 14.3203 14.4473 14.3203C14.4473 14.3203 12.2971 14.7981 11.4012 15.3356C10.5053 15.8732 9.60942 16.2315 10.0275 17.4858C10.4456 18.7401 11.6999 19.2179 12.8944 19.2776C14.0889 19.3373 14.4473 19.4568 14.4473 19.4568L14.9848 23.2196C14.9848 23.2196 13.4917 23.6974 12.3569 24.7128C11.222 25.7281 10.0275 26.8629 9.60942 28.2964C9.19133 29.7298 9.96778 30.7452 11.0429 30.8647C12.118 30.9841 13.6709 30.5063 14.4473 29.9687C15.2238 29.4312 16.0002 29.0131 16.0002 29.0131L16.6572 32.5967C16.6572 32.5967 15.4627 33.4329 14.7459 34.1496C14.0292 34.8664 13.6111 36.0012 13.4319 36.5984C13.2528 37.1957 12.9541 38.0916 12.7152 39.3459C12.4763 40.6001 12.6555 42.0336 13.0736 42.5711C13.4917 43.1087 14.9251 43.4073 15.7613 42.2128C16.5975 41.0182 17.2545 40.0626 17.6726 39.5251C18.0906 38.9875 18.3893 38.7486 18.3893 38.7486L18.8074 41.1974C18.8074 41.1974 21.5548 45.438 20.6589 44.781C19.763 44.124 30.8125 50.3954 30.8125 50.3954C30.8125 50.3954 31.1709 50.8732 31.7681 51.5899C32.3654 52.3066 33.7391 53.9193 34.2767 54.5763C34.8142 55.2333 36.7255 57.4431 37.5019 58.2196C38.2784 58.9961 39.891 60.4295 41.5036 61.0268C43.1162 61.624 44.9678 62.1019 46.6999 62.6991C48.4319 63.2964 51.7169 64.4312 53.0906 65.3868C54.4644 66.3425 58.705 69.2094 59.1828 69.5677C59.6606 69.9261 60.7954 70.3442 61.9302 69.0899C63.0651 67.8356 64.4388 66.2827 65.5736 64.3117Z" fill="#FBD300"/>
<path fill-rule="evenodd" clip-rule="evenodd" d="M43.1162 46.3339C43.1162 46.3937 43.8927 47.3493 44.4302 48.0063C44.9677 48.6633 45.2067 48.723 45.7442 49.0217C46.2817 49.3203 46.6998 49.5592 46.7596 49.2008C46.8193 48.8425 46.4609 48.723 45.8637 48.3049C45.2664 47.8868 44.8483 47.6479 44.3108 47.0507C43.7732 46.4534 43.2357 45.5575 43.2357 45.5575C43.2357 45.5575 43.1162 46.2742 43.1162 46.3339Z" fill="#CBAC04"/>
<path fill-rule="evenodd" clip-rule="evenodd" d="M42.2801 39.5931C42.2801 39.5931 42.1009 37.7416 42.8773 36.786C43.6538 35.8303 43.7135 35.4122 44.1316 35.1136C44.5497 34.815 45.4456 34.0982 44.8483 33.9788C44.2511 33.8593 43.2954 35.0539 42.8773 35.7109C42.4592 36.3679 41.8022 37.2638 41.8022 38.1597C41.8022 39.0556 42.0412 39.832 42.0412 39.832L42.2801 39.5931Z" fill="#CBAC04"/>
<path fill-rule="evenodd" clip-rule="evenodd" d="M21.0172 50.3356C21.0172 50.3356 22.1521 51.8885 23.7647 51.8885C25.3773 51.8885 29.3193 51.1718 30.6333 50.8732C31.9473 50.5746 39.5326 49.0217 40.7271 48.7827C41.9217 48.5438 43.1759 47.7674 43.4149 46.752C43.6538 45.7367 42.9968 42.5711 42.7579 41.2571C42.5189 39.9432 41.0855 33.1343 40.966 32.2384C40.8466 31.3425 38.577 20.4722 38.577 20.4722L36.6657 11.8118C36.6657 11.8118 35.1725 5.00288 34.8739 3.98752C34.5753 2.97216 33.6794 0.463631 31.7681 0.10527C29.8568 -0.253092 26.8108 0.403904 25.9746 0.583085C25.1384 0.762266 18.0906 2.31517 17.135 2.49435C16.1794 2.67353 13.4916 3.33053 12.536 3.86807C11.5804 4.40561 10.6845 5.00288 10.8637 7.15305C11.0428 9.30322 12.7749 16.1718 12.7749 16.1718L14.3278 22.921L15.5224 28.2964L16.8364 34.0302L17.9114 38.6889L19.106 43.9449L20.7783 49.6189L21.0172 50.3356Z" fill="black"/>
<path fill-rule="evenodd" clip-rule="evenodd" d="M27.0497 45.7367C27.0497 45.7367 30.9917 45.1394 33.8586 44.5421C36.7255 43.9449 39.9507 43.7657 40.4285 42.392C40.9063 41.0182 39.891 37.4944 39.4132 35.4039C38.9354 33.3135 37.1435 25.0114 36.7852 22.9807C36.4268 20.95 35.2323 15.4551 34.8739 13.3647C34.5156 11.2742 32.9627 5.48071 32.7237 4.5848C32.4848 3.6889 31.7084 2.3749 29.7971 2.19572C27.8859 2.01654 22.8091 3.39026 21.6145 3.62917C20.42 3.86808 16.4183 4.46535 15.3432 4.88344C14.2681 5.30152 13.1333 6.1377 13.3125 7.92951C13.4917 9.72132 13.7903 12.8271 14.3278 15.037C14.8654 17.2469 16.2391 22.3237 16.5975 24.235C16.9558 26.1462 18.1504 29.4312 18.1504 31.3425C18.1504 33.2537 19.106 36.1804 19.2255 37.1957C19.3449 38.2111 20.3005 42.392 20.5992 42.9892C20.8978 43.5865 21.6145 45.8561 23.4063 46.095C25.1982 46.3339 27.0497 45.7367 27.0497 45.7367Z" fill="#FF4A04"/>
<path fill-rule="evenodd" clip-rule="evenodd" d="M39.0548 23.1001C39.0548 23.1001 40.1299 24.7128 40.7869 25.1906C41.4439 25.6684 42.3995 26.3851 42.6385 27.1616C42.8774 27.938 43.5941 30.1479 43.7733 30.6257C43.9524 31.1035 44.1316 31.4619 44.49 31.2827C44.8483 31.1035 44.7289 30.9244 44.2511 29.909C43.7733 28.8937 43.5344 27.6394 43.176 26.9824C42.8176 26.3254 42.5787 25.7878 41.862 25.1906C41.1453 24.5933 40.4883 23.8766 40.0105 23.339C39.5326 22.8015 38.6965 21.1889 38.6965 21.1889L39.0548 22.9807V23.1001Z" fill="#CBAC04"/>
<path fill-rule="evenodd" clip-rule="evenodd" d="M16.2989 47.4687C16.2989 47.4687 16.8364 49.9176 17.4934 50.6343C18.1504 51.351 19.6436 51.7094 20.2408 51.1121C20.8381 50.5148 21.7937 49.38 21.6146 47.7077C21.4354 46.0353 21.2562 45.0199 20.4798 44.5421C19.7033 44.0643 19.2255 43.8254 19.0463 43.2879C18.8671 42.7503 18.449 41.2571 18.449 41.2571C18.449 41.2571 16.8364 43.467 16.478 44.9005C16.1197 46.3339 16.2989 47.4687 16.2989 47.4687Z" fill="#FBD300"/>
<path fill-rule="evenodd" clip-rule="evenodd" d="M55.4967 56.7284C56.3926 55.4741 56.7509 54.9366 57.0496 54.2796C57.3482 53.6226 57.5274 52.5475 57.2885 52.4878C57.0496 52.428 56.8107 52.8461 56.6315 53.5031C56.4523 54.1601 56.0939 54.8769 55.6759 55.3547C55.2578 55.8325 54.7202 56.37 54.8397 56.6089C54.9591 56.8478 54.6008 57.9827 55.4967 56.7284Z" fill="#CBAC04"/>
<path fill-rule="evenodd" clip-rule="evenodd" d="M57.826 50.039C57.826 50.039 57.8857 49.3223 57.8857 48.9042C57.8857 48.4861 57.7663 48.4264 57.5871 48.4264C57.4079 48.4264 57.2885 48.3666 57.2287 48.9042C57.169 49.4417 57.169 49.9793 57.169 50.2779C57.169 50.5765 57.2287 50.7557 57.4079 50.8154C57.5871 50.8752 57.7065 50.5765 57.7663 50.3973C57.826 50.2182 57.826 50.039 57.826 50.039Z" fill="#CBAC04"/>
<path fill-rule="evenodd" clip-rule="evenodd" d="M29.6329 19.7697C29.2148 18.1571 28.6772 14.8721 28.1994 13.5581C27.7216 12.2441 27.0049 11.0496 26.3479 10.3328C25.6909 9.61612 24.9144 9.49666 24.2574 9.67584C23.6004 9.85502 23.0032 9.97448 22.7643 10.8107C22.5254 11.6468 22.4059 12.6622 22.2865 13.3192C22.167 13.9762 22.2267 16.0666 22.2267 16.7834C22.2267 17.5001 22.824 20.2475 22.9434 21.0837C23.0629 21.9199 24.0185 24.0103 24.2574 24.9659C24.4963 25.9216 24.9742 26.9369 25.2131 27.7731C25.452 28.6093 26.6465 30.2816 27.423 30.3414C28.1994 30.4011 28.6772 30.4011 29.2745 29.6246C29.8718 28.8482 30.051 21.3823 29.6329 19.7697Z" fill="white"/>
<path fill-rule="evenodd" clip-rule="evenodd" d="M26.8257 35.8362C26.8257 34.5222 26.766 34.3431 27.2438 33.925C27.7216 33.5069 28.0202 33.5666 28.4383 33.268C28.8564 32.9693 29.4537 32.7902 30.4093 33.268C31.3649 33.7458 32.2011 34.7611 32.3803 35.4779C32.5595 36.1946 32.4998 37.0308 31.8428 37.628C31.1858 38.2253 31.126 38.5837 30.2301 38.5837C29.3342 38.5837 28.9161 38.7629 28.1994 38.2253C27.4827 37.6878 27.2438 37.8669 27.0646 37.0308C26.8854 36.1946 26.8257 37.1502 26.8257 35.8362Z" fill="white"/>
</svg>
