<svg width="65" height="65" viewBox="0 0 65 65" fill="none" xmlns="http://www.w3.org/2000/svg">
<g filter="url(#filter0_d_0_2658)">
<rect x="5" y="8" width="50" height="50" rx="25" fill="white"/>
<path fill-rule="evenodd" clip-rule="evenodd" d="M29.5865 42.5C30.6865 42.5 31.5865 41.6 31.5865 40.5H27.5865C27.5865 41.6 28.4765 42.5 29.5865 42.5ZM35.5865 36.5V31.5C35.5865 28.43 33.9465 25.86 31.0865 25.18V24.5C31.0865 23.67 30.4165 23 29.5865 23C28.7565 23 28.0865 23.67 28.0865 24.5V25.18C25.2165 25.86 23.5865 28.42 23.5865 31.5V36.5L22.2965 37.79C21.6665 38.42 22.1065 39.5 22.9965 39.5H36.1665C37.0565 39.5 37.5065 38.42 36.8765 37.79L35.5865 36.5Z" fill="#C3CAD9"/>
</g>
<g filter="url(#filter1_d_0_2658)">
<rect x="45" y="8" width="10" height="10" rx="5" fill="#E62E7B"/>
</g>
<defs>
<filter id="filter0_d_0_2658" x="0" y="5" width="60" height="60" filterUnits="userSpaceOnUse" color-interpolation-filters="sRGB">
<feFlood flood-opacity="0" result="BackgroundImageFix"/>
<feColorMatrix in="SourceAlpha" type="matrix" values="0 0 0 0 0 0 0 0 0 0 0 0 0 0 0 0 0 0 127 0" result="hardAlpha"/>
<feOffset dy="2"/>
<feGaussianBlur stdDeviation="2.5"/>
<feColorMatrix type="matrix" values="0 0 0 0 0.14902 0 0 0 0 0.2 0 0 0 0 0.301961 0 0 0 0.03 0"/>
<feBlend mode="normal" in2="BackgroundImageFix" result="effect1_dropShadow_0_2658"/>
<feBlend mode="normal" in="SourceGraphic" in2="effect1_dropShadow_0_2658" result="shape"/>
</filter>
<filter id="filter1_d_0_2658" x="35" y="0" width="30" height="30" filterUnits="userSpaceOnUse" color-interpolation-filters="sRGB">
<feFlood flood-opacity="0" result="BackgroundImageFix"/>
<feColorMatrix in="SourceAlpha" type="matrix" values="0 0 0 0 0 0 0 0 0 0 0 0 0 0 0 0 0 0 127 0" result="hardAlpha"/>
<feOffset dy="2"/>
<feGaussianBlur stdDeviation="5"/>
<feColorMatrix type="matrix" values="0 0 0 0 0.14902 0 0 0 0 0.2 0 0 0 0 0.301961 0 0 0 0.03 0"/>
<feBlend mode="normal" in2="BackgroundImageFix" result="effect1_dropShadow_0_2658"/>
<feBlend mode="normal" in="SourceGraphic" in2="effect1_dropShadow_0_2658" result="shape"/>
</filter>
</defs>
</svg>
