<svg width="46" height="32" viewBox="0 0 46 32" fill="none" xmlns="http://www.w3.org/2000/svg">
<path fill-rule="evenodd" clip-rule="evenodd" d="M31.5 2.18618C35.5 -0.313816 41 5.18618 43 12.6862L43.1762 13.3705C44.9959 20.6949 44.8636 28.7316 40.5 30.1862C36 31.6862 34.5 25.6862 32.5 24.1862C31.3115 23.2948 27.5059 23.1862 23 23.1862C18.4941 23.1862 14.6512 23.3228 13.5 24.1862C11.5 25.6862 10 31.6862 5.5 30.1862C1.06818 28.7089 1.00103 20.4422 2.91048 13.0278L3 12.6862C5 5.18618 10.5 -0.313816 14.5 2.18618C16.8704 3.66767 20 5.18618 23 5.18618C26 5.18618 31.5 2.18618 31.5 2.18618Z" stroke="#3361FF" stroke-width="2" stroke-linecap="round" stroke-linejoin="round"/>
<path fill-rule="evenodd" clip-rule="evenodd" d="M13.5 8.18619C14.5125 8.18619 15.3333 9.007 15.3333 10.0195V11.8529H17.1667C18.1792 11.8529 19 12.6737 19 13.6862C19 14.6987 18.1792 15.5195 17.1667 15.5195H15.3321L15.3333 17.3529C15.3333 18.3654 14.5125 19.1862 13.5 19.1862C12.4875 19.1862 11.6667 18.3654 11.6667 17.3529L11.6654 15.5195H9.83333C8.82081 15.5195 8 14.6987 8 13.6862C8 12.6737 8.82081 11.8529 9.83333 11.8529H11.6667V10.0195C11.6667 9.007 12.4875 8.18619 13.5 8.18619Z" stroke="#3361FF" stroke-width="2" stroke-linecap="round" stroke-linejoin="round"/>
<circle cx="30.72" cy="16.5751" r="2" stroke="#3361FF" stroke-width="2" stroke-linecap="round" stroke-linejoin="round"/>
<circle cx="30.72" cy="9.57507" r="2" stroke="#3361FF" stroke-width="2" stroke-linecap="round" stroke-linejoin="round"/>
<circle cx="36.72" cy="13.5751" r="2" stroke="#3361FF" stroke-width="2" stroke-linecap="round" stroke-linejoin="round"/>
</svg>
