<svg width="60" height="61" viewBox="0 0 60 61" fill="none" xmlns="http://www.w3.org/2000/svg">
<g filter="url(#filter0_d_0_2668)">
<rect x="5" y="3.5" width="50" height="50" rx="25" fill="white"/>
<path fill-rule="evenodd" clip-rule="evenodd" d="M30 18.5C24.4771 18.5 20 22.6712 20 27.8168C20 30.7488 21.4542 33.364 23.7267 35.0719V38.6242L27.1316 36.7439C28.0403 36.997 29.003 37.1335 30 37.1335C35.5229 37.1335 40 32.9623 40 27.8168C40 22.6712 35.5229 18.5 30 18.5ZM30.9938 31.0466L28.4472 28.3137L23.4783 31.0466L28.9441 25.2081L31.5528 27.941L36.4596 25.2081L30.9938 31.0466Z" fill="#C3CAD9"/>
</g>
<defs>
<filter id="filter0_d_0_2668" x="0" y="0.5" width="60" height="60" filterUnits="userSpaceOnUse" color-interpolation-filters="sRGB">
<feFlood flood-opacity="0" result="BackgroundImageFix"/>
<feColorMatrix in="SourceAlpha" type="matrix" values="0 0 0 0 0 0 0 0 0 0 0 0 0 0 0 0 0 0 127 0" result="hardAlpha"/>
<feOffset dy="2"/>
<feGaussianBlur stdDeviation="2.5"/>
<feColorMatrix type="matrix" values="0 0 0 0 0.14902 0 0 0 0 0.2 0 0 0 0 0.301961 0 0 0 0.03 0"/>
<feBlend mode="normal" in2="BackgroundImageFix" result="effect1_dropShadow_0_2668"/>
<feBlend mode="normal" in="SourceGraphic" in2="effect1_dropShadow_0_2668" result="shape"/>
</filter>
</defs>
</svg>
