<svg width="194" height="52" viewBox="0 0 194 52" fill="none" xmlns="http://www.w3.org/2000/svg">
<g filter="url(#filter0_d_0_2782)">
<rect x="6.5" y="4" width="181" height="40" rx="20" fill="white"/>
<path fill-rule="evenodd" clip-rule="evenodd" d="M37.9907 14.6667C32.8387 14.6667 28.6667 18.848 28.6667 24C28.6667 29.152 32.8387 33.3333 37.9907 33.3333C43.152 33.3333 47.3334 29.152 47.3334 24C47.3334 18.848 43.152 14.6667 37.9907 14.6667ZM38 31.4667C33.8747 31.4667 30.5334 28.1253 30.5334 24C30.5334 19.8747 33.8747 16.5333 38 16.5333C42.1254 16.5333 45.4667 19.8747 45.4667 24C45.4667 28.1253 42.1254 31.4667 38 31.4667ZM41.2667 23.0667C42.0414 23.0667 42.6667 22.4413 42.6667 21.6667C42.6667 20.892 42.0414 20.2667 41.2667 20.2667C40.492 20.2667 39.8667 20.892 39.8667 21.6667C39.8667 22.4413 40.492 23.0667 41.2667 23.0667ZM34.7334 23.0667C35.508 23.0667 36.1334 22.4413 36.1334 21.6667C36.1334 20.892 35.508 20.2667 34.7334 20.2667C33.9587 20.2667 33.3334 20.892 33.3334 21.6667C33.3334 22.4413 33.9587 23.0667 34.7334 23.0667ZM38 29.1333C39.8947 29.1333 41.5467 28.0973 42.4334 26.5667C42.6107 26.2587 42.3867 25.8667 42.0227 25.8667H33.9774C33.6227 25.8667 33.3894 26.2587 33.5667 26.5667C34.4534 28.0973 36.1054 29.1333 38 29.1333Z" fill="#8833FF"/>
<path d="M63.4863 26.6289V28H58.9453V26.6289H63.4863ZM59.5195 19.4688V28H57.7617V19.4688H59.5195ZM62.8945 22.9434V24.2793H58.9453V22.9434H62.8945ZM63.4805 19.4688V20.8457H58.9453V19.4688H63.4805ZM66.0586 23.0137V28H64.3711V21.6602H65.9531L66.0586 23.0137ZM65.8125 24.6074H65.3555C65.3555 24.1387 65.416 23.7168 65.5371 23.3418C65.6582 22.9629 65.8281 22.6406 66.0469 22.375C66.2656 22.1055 66.5254 21.9004 66.8262 21.7598C67.1309 21.6152 67.4707 21.543 67.8457 21.543C68.1426 21.543 68.4141 21.5859 68.6602 21.6719C68.9062 21.7578 69.1172 21.8945 69.293 22.082C69.4727 22.2695 69.6094 22.5176 69.7031 22.8262C69.8008 23.1348 69.8496 23.5117 69.8496 23.957V28H68.1504V23.9512C68.1504 23.6699 68.1113 23.4512 68.0332 23.2949C67.9551 23.1387 67.8398 23.0293 67.6875 22.9668C67.5391 22.9004 67.3555 22.8672 67.1367 22.8672C66.9102 22.8672 66.7129 22.9121 66.5449 23.002C66.3809 23.0918 66.2441 23.2168 66.1348 23.377C66.0293 23.5332 65.9492 23.7168 65.8945 23.9277C65.8398 24.1387 65.8125 24.3652 65.8125 24.6074ZM74.2383 21.6602V22.8555H70.5469V21.6602H74.2383ZM71.4609 20.0957H73.1484V26.0898C73.1484 26.2734 73.1719 26.4141 73.2188 26.5117C73.2695 26.6094 73.3438 26.6777 73.4414 26.7168C73.5391 26.752 73.6621 26.7695 73.8105 26.7695C73.916 26.7695 74.0098 26.7656 74.0918 26.7578C74.1777 26.7461 74.25 26.7344 74.3086 26.7227L74.3145 27.9648C74.1699 28.0117 74.0137 28.0488 73.8457 28.0762C73.6777 28.1035 73.4922 28.1172 73.2891 28.1172C72.918 28.1172 72.5938 28.0566 72.3164 27.9355C72.043 27.8105 71.832 27.6113 71.6836 27.3379C71.5352 27.0645 71.4609 26.7051 71.4609 26.2598V20.0957ZM78.1172 28.1172C77.625 28.1172 77.1836 28.0391 76.793 27.8828C76.4023 27.7227 76.0703 27.502 75.7969 27.2207C75.5273 26.9395 75.3203 26.6133 75.1758 26.2422C75.0312 25.8672 74.959 25.4688 74.959 25.0469V24.8125C74.959 24.332 75.0273 23.8926 75.1641 23.4941C75.3008 23.0957 75.4961 22.75 75.75 22.457C76.0078 22.1641 76.3203 21.9395 76.6875 21.7832C77.0547 21.623 77.4688 21.543 77.9297 21.543C78.3789 21.543 78.7773 21.6172 79.125 21.7656C79.4727 21.9141 79.7637 22.125 79.998 22.3984C80.2363 22.6719 80.416 23 80.5371 23.3828C80.6582 23.7617 80.7188 24.1836 80.7188 24.6484V25.3516H75.6797V24.2266H79.0605V24.0977C79.0605 23.8633 79.0176 23.6543 78.9316 23.4707C78.8496 23.2832 78.7246 23.1348 78.5566 23.0254C78.3887 22.916 78.1738 22.8613 77.9121 22.8613C77.6895 22.8613 77.498 22.9102 77.3379 23.0078C77.1777 23.1055 77.0469 23.2422 76.9453 23.418C76.8477 23.5938 76.7734 23.8008 76.7227 24.0391C76.6758 24.2734 76.6523 24.5312 76.6523 24.8125V25.0469C76.6523 25.3008 76.6875 25.5352 76.7578 25.75C76.832 25.9648 76.9355 26.1504 77.0684 26.3066C77.2051 26.4629 77.3691 26.584 77.5605 26.6699C77.7559 26.7559 77.9766 26.7988 78.2227 26.7988C78.5273 26.7988 78.8105 26.7402 79.0723 26.623C79.3379 26.502 79.5664 26.3203 79.7578 26.0781L80.5781 26.9688C80.4453 27.1602 80.2637 27.3438 80.0332 27.5195C79.8066 27.6953 79.5332 27.8398 79.2129 27.9531C78.8926 28.0625 78.5273 28.1172 78.1172 28.1172ZM83.3672 23.043V28H81.6797V21.6602H83.2676L83.3672 23.043ZM85.2773 21.6191L85.248 23.1836C85.166 23.1719 85.0664 23.1621 84.9492 23.1543C84.8359 23.1426 84.7324 23.1367 84.6387 23.1367C84.4004 23.1367 84.1934 23.168 84.0176 23.2305C83.8457 23.2891 83.7012 23.377 83.584 23.4941C83.4707 23.6113 83.3848 23.7539 83.3262 23.9219C83.2715 24.0898 83.2402 24.2812 83.2324 24.4961L82.8926 24.3906C82.8926 23.9805 82.9336 23.6035 83.0156 23.2598C83.0977 22.9121 83.2168 22.6094 83.373 22.3516C83.5332 22.0938 83.7285 21.8945 83.959 21.7539C84.1895 21.6133 84.4531 21.543 84.75 21.543C84.8438 21.543 84.9395 21.5508 85.0371 21.5664C85.1348 21.5781 85.2148 21.5957 85.2773 21.6191ZM89.4727 21.6602V22.8555H85.7812V21.6602H89.4727ZM86.6953 20.0957H88.3828V26.0898C88.3828 26.2734 88.4062 26.4141 88.4531 26.5117C88.5039 26.6094 88.5781 26.6777 88.6758 26.7168C88.7734 26.752 88.8965 26.7695 89.0449 26.7695C89.1504 26.7695 89.2441 26.7656 89.3262 26.7578C89.4121 26.7461 89.4844 26.7344 89.543 26.7227L89.5488 27.9648C89.4043 28.0117 89.248 28.0488 89.0801 28.0762C88.9121 28.1035 88.7266 28.1172 88.5234 28.1172C88.1523 28.1172 87.8281 28.0566 87.5508 27.9355C87.2773 27.8105 87.0664 27.6113 86.918 27.3379C86.7695 27.0645 86.6953 26.7051 86.6953 26.2598V20.0957ZM93.8555 26.5703V23.7461C93.8555 23.543 93.8223 23.3691 93.7559 23.2246C93.6895 23.0762 93.5859 22.9609 93.4453 22.8789C93.3086 22.7969 93.1309 22.7559 92.9121 22.7559C92.7246 22.7559 92.5625 22.7891 92.4258 22.8555C92.2891 22.918 92.1836 23.0098 92.1094 23.1309C92.0352 23.248 91.998 23.3867 91.998 23.5469H90.3105C90.3105 23.2773 90.373 23.0215 90.498 22.7793C90.623 22.5371 90.8047 22.3242 91.043 22.1406C91.2812 21.9531 91.5645 21.8066 91.8926 21.7012C92.2246 21.5957 92.5957 21.543 93.0059 21.543C93.498 21.543 93.9355 21.625 94.3184 21.7891C94.7012 21.9531 95.002 22.1992 95.2207 22.5273C95.4434 22.8555 95.5547 23.2656 95.5547 23.7578V26.4707C95.5547 26.8184 95.5762 27.1035 95.6191 27.3262C95.6621 27.5449 95.7246 27.7363 95.8066 27.9004V28H94.1016C94.0195 27.8281 93.957 27.6133 93.9141 27.3555C93.875 27.0938 93.8555 26.832 93.8555 26.5703ZM94.0781 24.1387L94.0898 25.0938H93.1465C92.9238 25.0938 92.7305 25.1191 92.5664 25.1699C92.4023 25.2207 92.2676 25.293 92.1621 25.3867C92.0566 25.4766 91.9785 25.582 91.9277 25.7031C91.8809 25.8242 91.8574 25.957 91.8574 26.1016C91.8574 26.2461 91.8906 26.377 91.957 26.4941C92.0234 26.6074 92.1191 26.6973 92.2441 26.7637C92.3691 26.8262 92.5156 26.8574 92.6836 26.8574C92.9375 26.8574 93.1582 26.8066 93.3457 26.7051C93.5332 26.6035 93.6777 26.4785 93.7793 26.3301C93.8848 26.1816 93.9395 26.041 93.9434 25.9082L94.3887 26.623C94.3262 26.7832 94.2402 26.9492 94.1309 27.1211C94.0254 27.293 93.8906 27.4551 93.7266 27.6074C93.5625 27.7559 93.3652 27.8789 93.1348 27.9766C92.9043 28.0703 92.6309 28.1172 92.3145 28.1172C91.9121 28.1172 91.5469 28.0371 91.2188 27.877C90.8945 27.7129 90.6367 27.4883 90.4453 27.2031C90.2578 26.9141 90.1641 26.5859 90.1641 26.2188C90.1641 25.8867 90.2266 25.5918 90.3516 25.334C90.4766 25.0762 90.6602 24.8594 90.9023 24.6836C91.1484 24.5039 91.4551 24.3691 91.8223 24.2793C92.1895 24.1855 92.6152 24.1387 93.0996 24.1387H94.0781ZM98.6367 21.6602V28H96.9434V21.6602H98.6367ZM96.8379 20.0078C96.8379 19.7617 96.9238 19.5586 97.0957 19.3984C97.2676 19.2383 97.498 19.1582 97.7871 19.1582C98.0723 19.1582 98.3008 19.2383 98.4727 19.3984C98.6484 19.5586 98.7363 19.7617 98.7363 20.0078C98.7363 20.2539 98.6484 20.457 98.4727 20.6172C98.3008 20.7773 98.0723 20.8574 97.7871 20.8574C97.498 20.8574 97.2676 20.7773 97.0957 20.6172C96.9238 20.457 96.8379 20.2539 96.8379 20.0078ZM101.684 23.0137V28H99.9961V21.6602H101.578L101.684 23.0137ZM101.438 24.6074H100.98C100.98 24.1387 101.041 23.7168 101.162 23.3418C101.283 22.9629 101.453 22.6406 101.672 22.375C101.891 22.1055 102.15 21.9004 102.451 21.7598C102.756 21.6152 103.096 21.543 103.471 21.543C103.768 21.543 104.039 21.5859 104.285 21.6719C104.531 21.7578 104.742 21.8945 104.918 22.082C105.098 22.2695 105.234 22.5176 105.328 22.8262C105.426 23.1348 105.475 23.5117 105.475 23.957V28H103.775V23.9512C103.775 23.6699 103.736 23.4512 103.658 23.2949C103.58 23.1387 103.465 23.0293 103.312 22.9668C103.164 22.9004 102.98 22.8672 102.762 22.8672C102.535 22.8672 102.338 22.9121 102.17 23.002C102.006 23.0918 101.869 23.2168 101.76 23.377C101.654 23.5332 101.574 23.7168 101.52 23.9277C101.465 24.1387 101.438 24.3652 101.438 24.6074ZM108.445 22.9727V28H106.752V21.6602H108.34L108.445 22.9727ZM108.211 24.6074H107.742C107.742 24.166 107.795 23.7598 107.9 23.3887C108.01 23.0137 108.168 22.6895 108.375 22.416C108.586 22.1387 108.846 21.9238 109.154 21.7715C109.463 21.6191 109.82 21.543 110.227 21.543C110.508 21.543 110.766 21.5859 111 21.6719C111.234 21.7539 111.436 21.8848 111.604 22.0645C111.775 22.2402 111.908 22.4707 112.002 22.7559C112.096 23.0371 112.143 23.375 112.143 23.7695V28H110.455V23.957C110.455 23.668 110.416 23.4453 110.338 23.2891C110.26 23.1328 110.148 23.0234 110.004 22.9609C109.863 22.8984 109.693 22.8672 109.494 22.8672C109.275 22.8672 109.084 22.9121 108.92 23.002C108.76 23.0918 108.627 23.2168 108.521 23.377C108.416 23.5332 108.338 23.7168 108.287 23.9277C108.236 24.1387 108.211 24.3652 108.211 24.6074ZM111.984 24.4141L111.381 24.4902C111.381 24.0762 111.432 23.6914 111.533 23.3359C111.639 22.9805 111.793 22.668 111.996 22.3984C112.203 22.1289 112.459 21.9199 112.764 21.7715C113.068 21.6191 113.42 21.543 113.818 21.543C114.123 21.543 114.4 21.5879 114.65 21.6777C114.9 21.7637 115.113 21.9023 115.289 22.0938C115.469 22.2812 115.605 22.5273 115.699 22.832C115.797 23.1367 115.846 23.5098 115.846 23.9512V28H114.152V23.9512C114.152 23.6582 114.113 23.4355 114.035 23.2832C113.961 23.127 113.852 23.0195 113.707 22.9609C113.566 22.8984 113.398 22.8672 113.203 22.8672C113 22.8672 112.822 22.9082 112.67 22.9902C112.518 23.0684 112.391 23.1777 112.289 23.3184C112.188 23.459 112.111 23.623 112.061 23.8105C112.01 23.9941 111.984 24.1953 111.984 24.4141ZM120.07 28.1172C119.578 28.1172 119.137 28.0391 118.746 27.8828C118.355 27.7227 118.023 27.502 117.75 27.2207C117.48 26.9395 117.273 26.6133 117.129 26.2422C116.984 25.8672 116.912 25.4688 116.912 25.0469V24.8125C116.912 24.332 116.98 23.8926 117.117 23.4941C117.254 23.0957 117.449 22.75 117.703 22.457C117.961 22.1641 118.273 21.9395 118.641 21.7832C119.008 21.623 119.422 21.543 119.883 21.543C120.332 21.543 120.73 21.6172 121.078 21.7656C121.426 21.9141 121.717 22.125 121.951 22.3984C122.189 22.6719 122.369 23 122.49 23.3828C122.611 23.7617 122.672 24.1836 122.672 24.6484V25.3516H117.633V24.2266H121.014V24.0977C121.014 23.8633 120.971 23.6543 120.885 23.4707C120.803 23.2832 120.678 23.1348 120.51 23.0254C120.342 22.916 120.127 22.8613 119.865 22.8613C119.643 22.8613 119.451 22.9102 119.291 23.0078C119.131 23.1055 119 23.2422 118.898 23.418C118.801 23.5938 118.727 23.8008 118.676 24.0391C118.629 24.2734 118.605 24.5312 118.605 24.8125V25.0469C118.605 25.3008 118.641 25.5352 118.711 25.75C118.785 25.9648 118.889 26.1504 119.021 26.3066C119.158 26.4629 119.322 26.584 119.514 26.6699C119.709 26.7559 119.93 26.7988 120.176 26.7988C120.48 26.7988 120.764 26.7402 121.025 26.623C121.291 26.502 121.52 26.3203 121.711 26.0781L122.531 26.9688C122.398 27.1602 122.217 27.3438 121.986 27.5195C121.76 27.6953 121.486 27.8398 121.166 27.9531C120.846 28.0625 120.48 28.1172 120.07 28.1172ZM125.285 23.0137V28H123.598V21.6602H125.18L125.285 23.0137ZM125.039 24.6074H124.582C124.582 24.1387 124.643 23.7168 124.764 23.3418C124.885 22.9629 125.055 22.6406 125.273 22.375C125.492 22.1055 125.752 21.9004 126.053 21.7598C126.357 21.6152 126.697 21.543 127.072 21.543C127.369 21.543 127.641 21.5859 127.887 21.6719C128.133 21.7578 128.344 21.8945 128.52 22.082C128.699 22.2695 128.836 22.5176 128.93 22.8262C129.027 23.1348 129.076 23.5117 129.076 23.957V28H127.377V23.9512C127.377 23.6699 127.338 23.4512 127.26 23.2949C127.182 23.1387 127.066 23.0293 126.914 22.9668C126.766 22.9004 126.582 22.8672 126.363 22.8672C126.137 22.8672 125.939 22.9121 125.771 23.002C125.607 23.0918 125.471 23.2168 125.361 23.377C125.256 23.5332 125.176 23.7168 125.121 23.9277C125.066 24.1387 125.039 24.3652 125.039 24.6074ZM133.465 21.6602V22.8555H129.773V21.6602H133.465ZM130.688 20.0957H132.375V26.0898C132.375 26.2734 132.398 26.4141 132.445 26.5117C132.496 26.6094 132.57 26.6777 132.668 26.7168C132.766 26.752 132.889 26.7695 133.037 26.7695C133.143 26.7695 133.236 26.7656 133.318 26.7578C133.404 26.7461 133.477 26.7344 133.535 26.7227L133.541 27.9648C133.396 28.0117 133.24 28.0488 133.072 28.0762C132.904 28.1035 132.719 28.1172 132.516 28.1172C132.145 28.1172 131.82 28.0566 131.543 27.9355C131.27 27.8105 131.059 27.6113 130.91 27.3379C130.762 27.0645 130.688 26.7051 130.688 26.2598V20.0957ZM143.32 24.8125V26.1367H137.174L137.092 25.1113L140.648 19.4688H141.99L140.537 21.9004L138.768 24.8125H143.32ZM142.354 19.4688V28H140.666V19.4688H142.354ZM149.977 22.9844V24.4609C149.977 25.1016 149.908 25.6543 149.771 26.1191C149.635 26.5801 149.438 26.959 149.18 27.2559C148.926 27.5488 148.623 27.7656 148.271 27.9062C147.92 28.0469 147.529 28.1172 147.1 28.1172C146.756 28.1172 146.436 28.0742 146.139 27.9883C145.842 27.8984 145.574 27.7598 145.336 27.5723C145.102 27.3848 144.898 27.1484 144.727 26.8633C144.559 26.5742 144.43 26.2305 144.34 25.832C144.25 25.4336 144.205 24.9766 144.205 24.4609V22.9844C144.205 22.3438 144.273 21.7949 144.41 21.3379C144.551 20.877 144.748 20.5 145.002 20.207C145.26 19.9141 145.564 19.6992 145.916 19.5625C146.268 19.4219 146.658 19.3516 147.088 19.3516C147.432 19.3516 147.75 19.3965 148.043 19.4863C148.34 19.5723 148.607 19.707 148.846 19.8906C149.084 20.0742 149.287 20.3105 149.455 20.5996C149.623 20.8848 149.752 21.2266 149.842 21.625C149.932 22.0195 149.977 22.4727 149.977 22.9844ZM148.283 24.6836V22.7559C148.283 22.4473 148.266 22.1777 148.23 21.9473C148.199 21.7168 148.15 21.5215 148.084 21.3613C148.018 21.1973 147.936 21.0645 147.838 20.9629C147.74 20.8613 147.629 20.7871 147.504 20.7402C147.379 20.6934 147.24 20.6699 147.088 20.6699C146.896 20.6699 146.727 20.707 146.578 20.7812C146.434 20.8555 146.311 20.9746 146.209 21.1387C146.107 21.2988 146.029 21.5137 145.975 21.7832C145.924 22.0488 145.898 22.373 145.898 22.7559V24.6836C145.898 24.9922 145.914 25.2637 145.945 25.498C145.98 25.7324 146.031 25.9336 146.098 26.1016C146.168 26.2656 146.25 26.4004 146.344 26.5059C146.441 26.6074 146.553 26.6816 146.678 26.7285C146.807 26.7754 146.947 26.7988 147.1 26.7988C147.287 26.7988 147.453 26.7617 147.598 26.6875C147.746 26.6094 147.871 26.4883 147.973 26.3242C148.078 26.1562 148.156 25.9375 148.207 25.668C148.258 25.3984 148.283 25.0703 148.283 24.6836ZM156.867 22.9844V24.4609C156.867 25.1016 156.799 25.6543 156.662 26.1191C156.525 26.5801 156.328 26.959 156.07 27.2559C155.816 27.5488 155.514 27.7656 155.162 27.9062C154.811 28.0469 154.42 28.1172 153.99 28.1172C153.646 28.1172 153.326 28.0742 153.029 27.9883C152.732 27.8984 152.465 27.7598 152.227 27.5723C151.992 27.3848 151.789 27.1484 151.617 26.8633C151.449 26.5742 151.32 26.2305 151.23 25.832C151.141 25.4336 151.096 24.9766 151.096 24.4609V22.9844C151.096 22.3438 151.164 21.7949 151.301 21.3379C151.441 20.877 151.639 20.5 151.893 20.207C152.15 19.9141 152.455 19.6992 152.807 19.5625C153.158 19.4219 153.549 19.3516 153.979 19.3516C154.322 19.3516 154.641 19.3965 154.934 19.4863C155.23 19.5723 155.498 19.707 155.736 19.8906C155.975 20.0742 156.178 20.3105 156.346 20.5996C156.514 20.8848 156.643 21.2266 156.732 21.625C156.822 22.0195 156.867 22.4727 156.867 22.9844ZM155.174 24.6836V22.7559C155.174 22.4473 155.156 22.1777 155.121 21.9473C155.09 21.7168 155.041 21.5215 154.975 21.3613C154.908 21.1973 154.826 21.0645 154.729 20.9629C154.631 20.8613 154.52 20.7871 154.395 20.7402C154.27 20.6934 154.131 20.6699 153.979 20.6699C153.787 20.6699 153.617 20.707 153.469 20.7812C153.324 20.8555 153.201 20.9746 153.1 21.1387C152.998 21.2988 152.92 21.5137 152.865 21.7832C152.814 22.0488 152.789 22.373 152.789 22.7559V24.6836C152.789 24.9922 152.805 25.2637 152.836 25.498C152.871 25.7324 152.922 25.9336 152.988 26.1016C153.059 26.2656 153.141 26.4004 153.234 26.5059C153.332 26.6074 153.443 26.6816 153.568 26.7285C153.697 26.7754 153.838 26.7988 153.99 26.7988C154.178 26.7988 154.344 26.7617 154.488 26.6875C154.637 26.6094 154.762 26.4883 154.863 26.3242C154.969 26.1562 155.047 25.9375 155.098 25.668C155.148 25.3984 155.174 25.0703 155.174 24.6836ZM161.537 18.1152V19.8438H160.623V18.1152H161.537ZM161.426 27.6836V29.2598H160.512V27.6836H161.426ZM162.07 25.7617C162.07 25.5391 162.029 25.3496 161.947 25.1934C161.869 25.0371 161.74 24.8984 161.561 24.7773C161.385 24.6562 161.146 24.5391 160.846 24.4258C160.338 24.2305 159.891 24.0234 159.504 23.8047C159.121 23.582 158.822 23.3066 158.607 22.9785C158.393 22.6465 158.285 22.2266 158.285 21.7188C158.285 21.2344 158.4 20.8145 158.631 20.459C158.861 20.1035 159.18 19.8301 159.586 19.6387C159.996 19.4434 160.473 19.3457 161.016 19.3457C161.43 19.3457 161.805 19.4082 162.141 19.5332C162.477 19.6543 162.766 19.834 163.008 20.0723C163.25 20.3066 163.436 20.5938 163.564 20.9336C163.693 21.2734 163.758 21.6621 163.758 22.0996H162.076C162.076 21.8652 162.051 21.6582 162 21.4785C161.949 21.2988 161.875 21.1484 161.777 21.0273C161.684 20.9062 161.57 20.8164 161.438 20.7578C161.305 20.6953 161.158 20.6641 160.998 20.6641C160.76 20.6641 160.564 20.7109 160.412 20.8047C160.26 20.8984 160.148 21.0254 160.078 21.1855C160.012 21.3418 159.979 21.5215 159.979 21.7246C159.979 21.9238 160.014 22.0977 160.084 22.2461C160.158 22.3945 160.285 22.5312 160.465 22.6562C160.645 22.7773 160.891 22.9023 161.203 23.0312C161.711 23.2266 162.156 23.4375 162.539 23.6641C162.922 23.8906 163.221 24.168 163.436 24.4961C163.65 24.8242 163.758 25.2422 163.758 25.75C163.758 26.2539 163.641 26.6836 163.406 27.0391C163.172 27.3906 162.844 27.6602 162.422 27.8477C162 28.0312 161.512 28.123 160.957 28.123C160.598 28.123 160.24 28.0762 159.885 27.9824C159.529 27.8848 159.207 27.7285 158.918 27.5137C158.629 27.2988 158.398 27.0137 158.227 26.6582C158.055 26.2988 157.969 25.8574 157.969 25.334H159.656C159.656 25.6191 159.693 25.8574 159.768 26.0488C159.842 26.2363 159.939 26.3867 160.061 26.5C160.186 26.6094 160.326 26.6875 160.482 26.7344C160.639 26.7812 160.797 26.8047 160.957 26.8047C161.207 26.8047 161.412 26.7598 161.572 26.6699C161.736 26.5801 161.859 26.457 161.941 26.3008C162.027 26.1406 162.07 25.9609 162.07 25.7617Z" fill="#7D8FB3"/>
<rect x="6.5" y="4" width="181" height="40" rx="20" stroke="#F5F6F7" stroke-width="2"/>
</g>
<defs>
<filter id="filter0_d_0_2782" x="0.5" y="0" width="193" height="52" filterUnits="userSpaceOnUse" color-interpolation-filters="sRGB">
<feFlood flood-opacity="0" result="BackgroundImageFix"/>
<feColorMatrix in="SourceAlpha" type="matrix" values="0 0 0 0 0 0 0 0 0 0 0 0 0 0 0 0 0 0 127 0" result="hardAlpha"/>
<feOffset dy="2"/>
<feGaussianBlur stdDeviation="2.5"/>
<feColorMatrix type="matrix" values="0 0 0 0 0.14902 0 0 0 0 0.2 0 0 0 0 0.301961 0 0 0 0.03 0"/>
<feBlend mode="normal" in2="BackgroundImageFix" result="effect1_dropShadow_0_2782"/>
<feBlend mode="normal" in="SourceGraphic" in2="effect1_dropShadow_0_2782" result="shape"/>
</filter>
</defs>
</svg>
