<svg width="60" height="61" viewBox="0 0 60 61" fill="none" xmlns="http://www.w3.org/2000/svg">
<g filter="url(#filter0_d_0_2666)">
<rect x="5" y="3.5" width="50" height="50" rx="25" fill="white"/>
<path fill-rule="evenodd" clip-rule="evenodd" d="M29.5777 32.72L32.8577 35.1067C33.3777 35.4933 34.0844 34.9733 33.8844 34.36L32.631 30.5067L35.871 28.2C36.4044 27.8267 36.1377 26.9867 35.4844 26.9867H31.511L30.2177 22.96C30.0177 22.3467 29.151 22.3467 28.951 22.96L27.6444 26.9867H23.671C23.0177 26.9867 22.751 27.8267 23.2844 28.2L26.5244 30.5067L25.271 34.36C25.071 34.9733 25.7777 35.48 26.2977 35.1067L29.5777 32.72Z" fill="#C3CAD9"/>
</g>
<defs>
<filter id="filter0_d_0_2666" x="0" y="0.5" width="60" height="60" filterUnits="userSpaceOnUse" color-interpolation-filters="sRGB">
<feFlood flood-opacity="0" result="BackgroundImageFix"/>
<feColorMatrix in="SourceAlpha" type="matrix" values="0 0 0 0 0 0 0 0 0 0 0 0 0 0 0 0 0 0 127 0" result="hardAlpha"/>
<feOffset dy="2"/>
<feGaussianBlur stdDeviation="2.5"/>
<feColorMatrix type="matrix" values="0 0 0 0 0.14902 0 0 0 0 0.2 0 0 0 0 0.301961 0 0 0 0.03 0"/>
<feBlend mode="normal" in2="BackgroundImageFix" result="effect1_dropShadow_0_2666"/>
<feBlend mode="normal" in="SourceGraphic" in2="effect1_dropShadow_0_2666" result="shape"/>
</filter>
</defs>
</svg>
