<svg width="60" height="61" viewBox="0 0 60 61" fill="none" xmlns="http://www.w3.org/2000/svg">
<g filter="url(#filter0_d_0_2671)">
<rect x="5" y="3.5" width="50" height="50" rx="25" fill="white"/>
<path fill-rule="evenodd" clip-rule="evenodd" d="M30 18.5C24.48 18.5 20 22.98 20 28.5C20 34.02 24.48 38.5 30 38.5C35.52 38.5 40 34.02 40 28.5C40 22.98 35.52 18.5 30 18.5ZM29 36.43C25.05 35.94 22 32.58 22 28.5C22 27.88 22.08 27.29 22.21 26.71L27 31.5V32.5C27 33.6 27.9 34.5 29 34.5V36.43ZM35.9 33.89C35.64 33.08 34.9 32.5 34 32.5H33V29.5C33 28.95 32.55 28.5 32 28.5H26V26.5H28C28.55 26.5 29 26.05 29 25.5V23.5H31C32.1 23.5 33 22.6 33 21.5V21.09C35.93 22.28 38 25.15 38 28.5C38 30.58 37.2 32.47 35.9 33.89Z" fill="#C3CAD9"/>
</g>
<defs>
<filter id="filter0_d_0_2671" x="0" y="0.5" width="60" height="60" filterUnits="userSpaceOnUse" color-interpolation-filters="sRGB">
<feFlood flood-opacity="0" result="BackgroundImageFix"/>
<feColorMatrix in="SourceAlpha" type="matrix" values="0 0 0 0 0 0 0 0 0 0 0 0 0 0 0 0 0 0 127 0" result="hardAlpha"/>
<feOffset dy="2"/>
<feGaussianBlur stdDeviation="2.5"/>
<feColorMatrix type="matrix" values="0 0 0 0 0.14902 0 0 0 0 0.2 0 0 0 0 0.301961 0 0 0 0.03 0"/>
<feBlend mode="normal" in2="BackgroundImageFix" result="effect1_dropShadow_0_2671"/>
<feBlend mode="normal" in="SourceGraphic" in2="effect1_dropShadow_0_2671" result="shape"/>
</filter>
</defs>
</svg>
