<svg width="52" height="53" viewBox="0 0 52 53" fill="none" xmlns="http://www.w3.org/2000/svg">
<g filter="url(#filter0_d_0_2753)">
<rect x="6" y="4.5" width="40" height="40" rx="20" fill="white"/>
<path fill-rule="evenodd" clip-rule="evenodd" d="M20.4 22.6333C19.3733 22.6333 18.5333 23.4733 18.5333 24.5C18.5333 25.5267 19.3733 26.3667 20.4 26.3667C21.4267 26.3667 22.2667 25.5267 22.2667 24.5C22.2667 23.4733 21.4267 22.6333 20.4 22.6333ZM31.6 22.6333C30.5733 22.6333 29.7333 23.4733 29.7333 24.5C29.7333 25.5267 30.5733 26.3667 31.6 26.3667C32.6267 26.3667 33.4667 25.5267 33.4667 24.5C33.4667 23.4733 32.6267 22.6333 31.6 22.6333ZM26 22.6333C24.9733 22.6333 24.1333 23.4733 24.1333 24.5C24.1333 25.5267 24.9733 26.3667 26 26.3667C27.0267 26.3667 27.8667 25.5267 27.8667 24.5C27.8667 23.4733 27.0267 22.6333 26 22.6333Z" fill="#C3CAD9"/>
<rect x="6" y="4.5" width="40" height="40" rx="20" stroke="#F5F6F7" stroke-width="2"/>
</g>
<defs>
<filter id="filter0_d_0_2753" x="0" y="0.5" width="52" height="52" filterUnits="userSpaceOnUse" color-interpolation-filters="sRGB">
<feFlood flood-opacity="0" result="BackgroundImageFix"/>
<feColorMatrix in="SourceAlpha" type="matrix" values="0 0 0 0 0 0 0 0 0 0 0 0 0 0 0 0 0 0 127 0" result="hardAlpha"/>
<feOffset dy="2"/>
<feGaussianBlur stdDeviation="2.5"/>
<feColorMatrix type="matrix" values="0 0 0 0 0.14902 0 0 0 0 0.2 0 0 0 0 0.301961 0 0 0 0.03 0"/>
<feBlend mode="normal" in2="BackgroundImageFix" result="effect1_dropShadow_0_2753"/>
<feBlend mode="normal" in="SourceGraphic" in2="effect1_dropShadow_0_2753" result="shape"/>
</filter>
</defs>
</svg>
