<svg width="60" height="61" viewBox="0 0 60 61" fill="none" xmlns="http://www.w3.org/2000/svg">
<g filter="url(#filter0_d_0_2670)">
<rect x="5" y="3.5" width="50" height="50" rx="25" fill="white"/>
<path fill-rule="evenodd" clip-rule="evenodd" d="M34.4325 23.35L35.8725 24.79L30.9925 29.67L27.7025 26.38C27.5157 26.1927 27.262 26.0875 26.9975 26.0875C26.733 26.0875 26.4793 26.1927 26.2925 26.38L20.2925 32.39C19.9025 32.78 19.9025 33.41 20.2925 33.8C20.6825 34.19 21.3125 34.19 21.7025 33.8L26.9925 28.5L30.2825 31.79C30.6725 32.18 31.3025 32.18 31.6925 31.79L37.2825 26.21L38.7225 27.65C39.0325 27.96 39.5725 27.74 39.5725 27.3V23C39.5825 22.72 39.3625 22.5 39.0825 22.5H34.7925C34.3425 22.5 34.1225 23.04 34.4325 23.35Z" fill="#C3CAD9"/>
</g>
<defs>
<filter id="filter0_d_0_2670" x="0" y="0.5" width="60" height="60" filterUnits="userSpaceOnUse" color-interpolation-filters="sRGB">
<feFlood flood-opacity="0" result="BackgroundImageFix"/>
<feColorMatrix in="SourceAlpha" type="matrix" values="0 0 0 0 0 0 0 0 0 0 0 0 0 0 0 0 0 0 127 0" result="hardAlpha"/>
<feOffset dy="2"/>
<feGaussianBlur stdDeviation="2.5"/>
<feColorMatrix type="matrix" values="0 0 0 0 0.14902 0 0 0 0 0.2 0 0 0 0 0.301961 0 0 0 0.03 0"/>
<feBlend mode="normal" in2="BackgroundImageFix" result="effect1_dropShadow_0_2670"/>
<feBlend mode="normal" in="SourceGraphic" in2="effect1_dropShadow_0_2670" result="shape"/>
</filter>
</defs>
</svg>
