<svg width="28" height="28" viewBox="0 0 28 28" fill="none" xmlns="http://www.w3.org/2000/svg">
<path fill-rule="evenodd" clip-rule="evenodd" d="M21.609 16.2797L22.281 15.6077C22.645 15.2437 22.645 14.6557 22.281 14.2917L22.2624 14.273C22.088 14.0982 21.8512 14 21.6044 14C21.3575 14 21.1207 14.0982 20.9464 14.273L18.277 16.9423L10.2784 8.94366L12.9477 6.27432C13.3117 5.91032 13.3117 5.32232 12.9477 4.95832L12.929 4.93966C12.7546 4.76489 12.5179 4.66667 12.271 4.66667C12.0241 4.66667 11.7874 4.76489 11.613 4.93966L10.941 5.61166L10.269 4.93966C9.90502 4.57566 9.30769 4.57566 8.94369 4.93966L7.60902 6.27432L6.93702 5.60232C6.57302 5.23832 5.96635 5.23832 5.60235 5.60232C5.23835 5.96632 5.23835 6.57299 5.60235 6.93699L6.27435 7.60899L4.93969 8.94366C4.57569 9.30766 4.57569 9.89566 4.93969 10.2597L5.61169 10.9317L4.93969 11.613C4.57569 11.977 4.57569 12.565 4.93969 12.929L4.95835 12.9477C5.32235 13.3117 5.91035 13.3117 6.27435 12.9477L8.94369 10.2783L16.9424 18.277L14.273 20.9463C13.909 21.3103 13.909 21.8983 14.273 22.2623L14.2917 22.281C14.6557 22.645 15.2437 22.645 15.6077 22.281L16.2797 21.609L16.9517 22.281C17.3157 22.645 17.9037 22.645 18.2677 22.281L19.6024 20.9463L20.2744 21.6183C20.6384 21.9823 21.245 21.9823 21.609 21.6183C21.973 21.2543 21.973 20.6477 21.609 20.2837L20.937 19.6117L22.281 18.277C22.645 17.913 22.645 17.325 22.281 16.961L21.609 16.2797Z" fill="#E62E7B"/>
</svg>
