<svg width="28" height="28" viewBox="0 0 28 28" fill="none" xmlns="http://www.w3.org/2000/svg">
<path fill-rule="evenodd" clip-rule="evenodd" d="M21.252 9.54801L21.2613 9.53867L18.284 6.56134C18.0133 6.29067 17.5653 6.29067 17.2947 6.56134C17.024 6.83201 17.024 7.28001 17.2947 7.55067L18.7693 9.02534C17.7893 9.39867 17.1267 10.3973 17.2947 11.5547C17.444 12.5813 18.3213 13.412 19.348 13.524C19.7867 13.5707 20.1693 13.496 20.5333 13.3373V20.0667C20.5333 20.58 20.1133 21 19.6 21C19.0867 21 18.6667 20.58 18.6667 20.0667V15.8667C18.6667 14.84 17.8267 14 16.8 14H15.8667V7.46667C15.8667 6.44001 15.0267 5.60001 14 5.60001H8.39999C7.37333 5.60001 6.53333 6.44001 6.53333 7.46667V21.4667C6.53333 21.98 6.95333 22.4 7.46666 22.4H14.9333C15.4467 22.4 15.8667 21.98 15.8667 21.4667V15.4H17.2667V19.936C17.2667 21.1587 18.144 22.2693 19.3573 22.3907C20.7573 22.5307 21.9333 21.4387 21.9333 20.0667V11.2C21.9333 10.556 21.672 9.96801 21.252 9.54801ZM14 12.1333H8.39999V8.40001C8.39999 7.88667 8.81999 7.46667 9.33332 7.46667H13.0667C13.58 7.46667 14 7.88667 14 8.40001V12.1333ZM19.6 12.1333C19.0867 12.1333 18.6667 11.7133 18.6667 11.2C18.6667 10.6867 19.0867 10.2667 19.6 10.2667C20.1133 10.2667 20.5333 10.6867 20.5333 11.2C20.5333 11.7133 20.1133 12.1333 19.6 12.1333Z" fill="#E62E2E"/>
</svg>
