<svg width="29" height="28" viewBox="0 0 29 28" fill="none" xmlns="http://www.w3.org/2000/svg">
<path fill-rule="evenodd" clip-rule="evenodd" d="M18.7 3.73334H11.2334C9.94536 3.73334 8.90002 4.77867 8.90002 6.06667V21.9333C8.90002 23.2213 9.94536 24.2667 11.2334 24.2667H18.7C19.988 24.2667 21.0334 23.2213 21.0334 21.9333V6.06667C21.0334 4.77867 19.988 3.73334 18.7 3.73334ZM14.9667 23.3333C14.192 23.3333 13.5667 22.708 13.5667 21.9333C13.5667 21.1587 14.192 20.5333 14.9667 20.5333C15.7414 20.5333 16.3667 21.1587 16.3667 21.9333C16.3667 22.708 15.7414 23.3333 14.9667 23.3333ZM19.1667 19.6H10.7667V6.53334H19.1667V19.6Z" fill="#33BFFF"/>
</svg>
