<svg width="24" height="15" viewBox="0 0 24 15" fill="none" xmlns="http://www.w3.org/2000/svg">
<path d="M14.6531 12.7454H8.41553V1.53558H14.6532L14.6531 12.7454Z" fill="#FF5F00"/>
<path d="M8.81098 7.14071C8.81098 4.86681 9.87568 2.84121 11.5336 1.53582C10.2786 0.546254 8.72643 0.00918197 7.12824 0.0115434C3.19133 0.0115434 0 3.20333 0 7.14071C0 11.0781 3.19133 14.2699 7.12824 14.2699C8.72647 14.2723 10.2787 13.7352 11.5337 12.7456C9.87591 11.4404 8.81098 9.41473 8.81098 7.14071Z" fill="#EB001B"/>
<path d="M23.0683 7.14071C23.0683 11.0781 19.8769 14.2699 15.94 14.2699C14.3416 14.2722 12.7892 13.7352 11.534 12.7456C13.1924 11.4402 14.2571 9.41473 14.2571 7.14071C14.2571 4.86669 13.1924 2.84121 11.534 1.53582C12.7892 0.546283 14.3416 0.00922336 15.9399 0.0115431C19.8768 0.0115431 23.0682 3.20333 23.0682 7.14071" fill="#F79E1B"/>
</svg>
