<svg width="28" height="28" viewBox="0 0 28 28" fill="none" xmlns="http://www.w3.org/2000/svg">
<path fill-rule="evenodd" clip-rule="evenodd" d="M13.9907 4.66666C8.83869 4.66666 4.66669 8.84799 4.66669 14C4.66669 19.152 8.83869 23.3333 13.9907 23.3333C19.152 23.3333 23.3334 19.152 23.3334 14C23.3334 8.84799 19.152 4.66666 13.9907 4.66666ZM14 21.4667C9.87469 21.4667 6.53335 18.1253 6.53335 14C6.53335 9.87466 9.87469 6.53332 14 6.53332C18.1254 6.53332 21.4667 9.87466 21.4667 14C21.4667 18.1253 18.1254 21.4667 14 21.4667ZM17.2667 13.0667C18.0414 13.0667 18.6667 12.4413 18.6667 11.6667C18.6667 10.892 18.0414 10.2667 17.2667 10.2667C16.492 10.2667 15.8667 10.892 15.8667 11.6667C15.8667 12.4413 16.492 13.0667 17.2667 13.0667ZM10.7334 13.0667C11.508 13.0667 12.1334 12.4413 12.1334 11.6667C12.1334 10.892 11.508 10.2667 10.7334 10.2667C9.95869 10.2667 9.33335 10.892 9.33335 11.6667C9.33335 12.4413 9.95869 13.0667 10.7334 13.0667ZM14 19.1333C15.8947 19.1333 17.5467 18.0973 18.4334 16.5667C18.6107 16.2587 18.3867 15.8667 18.0227 15.8667H9.97735C9.62269 15.8667 9.38935 16.2587 9.56669 16.5667C10.4534 18.0973 12.1054 19.1333 14 19.1333Z" fill="#8833FF"/>
</svg>
